<?xml version="1.0" standalone="no"?>
<!DOCTYPE svg PUBLIC "-//W3C//DTD SVG 20010904//EN" "http://www.w3.org/TR/2001/REC-SVG-20010904/DTD/svg10.dtd">
<svg version="1.0" xmlns="http://www.w3.org/2000/svg" width="1848.000000pt" height="714.000000pt" viewBox="0 0 1848.000000 714.000000" preserveAspectRatio="xMidYMid meet">

    <g transform="translate(0.000000,714.000000) scale(0.100000,-0.100000)" fill="#000000" stroke="none">
        <path d="M12627 5213 c-7 -7 -10 -867 -3 -874 2 -2 200 -3 440 -1 l436 2 0
440 0 440 -433 0 c-239 0 -437 -3 -440 -7z" />
        <path d="M13685 3385 l0 -795 798 0 797 0 0 795 0 795 -797 0 -798 0 0 -795z" />
        <path d="M9450 2930 l0 -440 436 2 436 3 1 437 2 438 -437 0 -438 0 0 -440z" />
        <path d="M7160 1710 l0 -1370 390 0 390 0 0 258 0 257 136 130 c76 72 141 130
146 130 5 0 97 -174 205 -387 l196 -388 429 0 430 0 -18 27 c-10 16 -36 60
-57 98 -22 39 -76 131 -120 205 -100 169 -165 281 -257 440 -40 69 -111 190
-158 270 -47 80 -98 167 -113 195 l-28 50 172 168 c95 92 252 245 350 340 97
94 177 175 177 179 0 5 -208 8 -462 8 l-463 0 -35 -42 c-128 -152 -514 -594
-521 -596 -5 -2 -9 290 -9 697 l0 701 -390 0 -390 0 0 -1370z" />
        <path d="M12340 2063 c0 -243 -3 -449 -6 -457 -6 -15 37 -16 461 -16 417 1
466 2 461 16 -3 9 -6 214 -6 457 l0 442 -455 0 -455 0 0 -442z" />
        <path d="M1540 2359 c-80 -4 -174 -12 -210 -18 -404 -73 -688 -329 -795 -714
-32 -114 -44 -333 -26 -475 35 -284 189 -543 412 -691 116 -78 223 -118 394
-148 129 -22 159 -24 375 -20 250 5 388 23 500 64 8 4 21 7 29 9 7 1 50 20 95
42 141 68 275 190 379 347 l59 90 -64 7 c-85 9 -371 37 -543 53 l-140 13 -60
-62 c-126 -129 -313 -159 -473 -77 -52 27 -117 92 -144 145 -24 46 -61 193
-52 207 3 5 316 9 761 9 l756 0 -6 178 c-5 145 -11 199 -32 286 -50 206 -121
340 -243 464 -162 166 -357 252 -637 281 -148 16 -177 17 -335 10z m273 -483
c31 -15 71 -41 87 -58 54 -53 106 -179 112 -268 l3 -45 -370 0 -370 0 3 25
c15 136 78 256 166 319 65 47 123 61 227 58 70 -2 96 -8 142 -31z" />
        <path d="M4527 2358 c-108 -10 -167 -26 -254 -68 -89 -43 -208 -133 -264 -198
-20 -23 -39 -42 -42 -42 -4 0 -7 61 -7 135 l0 135 -355 0 -355 0 0 -990 0
-990 380 0 380 0 0 549 c0 448 3 563 15 620 27 128 77 200 170 242 51 24 164
25 210 4 47 -23 95 -73 119 -125 21 -44 21 -60 24 -668 l3 -622 379 0 379 0 3
592 3 593 24 60 c30 76 109 158 166 174 22 6 67 11 100 11 103 -1 171 -46 217
-145 l23 -50 3 -618 3 -617 380 0 380 0 -3 733 c-4 719 -4 733 -26 812 -46
167 -140 305 -259 381 -114 74 -279 106 -468 93 -241 -16 -343 -65 -555 -266
-25 -24 -49 -43 -55 -43 -5 0 -27 27 -49 61 -70 108 -181 190 -307 225 -66 19
-270 31 -362 22z m764 -311 c-10 -9 -11 -8 -5 6 3 10 9 15 12 12 3 -3 0 -11
-7 -18z" />
        <path d="M10680 2363 c-171 -9 -382 -45 -480 -82 -150 -57 -288 -181 -351
-316 -35 -74 -75 -202 -66 -211 2 -2 73 -11 158 -19 85 -9 240 -25 344 -35
105 -11 197 -20 205 -20 8 0 24 21 35 48 28 68 100 137 166 157 71 23 248 31
322 15 77 -16 121 -58 137 -132 7 -29 10 -66 8 -82 -3 -26 -10 -32 -73 -53
-127 -44 -383 -110 -525 -136 -77 -14 -275 -58 -340 -75 -331 -88 -479 -242
-497 -513 -12 -181 34 -306 157 -429 134 -134 265 -180 531 -187 296 -8 489
44 684 188 28 20 59 46 69 58 30 33 42 25 55 -36 6 -32 23 -82 38 -111 l26
-52 357 0 357 0 -34 86 c-19 47 -39 107 -44 133 -7 27 -12 265 -15 586 -2 297
-6 566 -8 597 -5 66 -56 227 -94 296 -44 80 -149 175 -244 221 -106 51 -173
67 -345 86 -125 14 -419 24 -533 18z m478 -1215 c-5 -151 -22 -209 -82 -282
-100 -123 -317 -189 -459 -140 -57 19 -123 90 -133 141 -18 94 26 177 122 230
33 17 122 50 199 73 77 22 185 56 240 75 55 18 104 34 109 34 4 1 6 -59 4
-131z" />
        <path d="M15045 1453 c-237 -53 -367 -192 -411 -438 -18 -101 -18 -169 0 -270
20 -108 48 -178 105 -255 84 -115 189 -170 368 -192 162 -20 321 14 418 89 71
56 146 178 169 275 6 27 6 27 -140 73 -150 47 -163 48 -164 7 0 -19 -40 -94
-64 -120 -34 -38 -72 -53 -139 -54 -160 -3 -226 104 -215 346 6 126 34 197 97
240 52 36 134 45 195 22 49 -19 102 -72 112 -111 3 -14 9 -25 13 -25 3 0 72
14 154 32 167 36 158 24 106 134 -56 119 -167 207 -301 239 -59 14 -254 19
-303 8z" />
        <path d="M12270 1305 l0 -145 173 -2 c144 -3 172 -5 173 -18 1 -8 2 -198 3
-422 l1 -408 170 0 170 0 0 425 0 425 169 0 170 0 6 43 c3 23 5 87 3 142 l-3
100 -517 3 -518 2 0 -145z" />
        <path d="M13510 1445 c0 -3 0 -258 0 -567 l0 -563 465 -3 465 -2 0 135 0 135
-295 0 -296 0 3 106 3 105 261 0 261 -1 7 62 c8 81 7 150 -2 165 -5 8 -82 12
-267 15 l-260 3 0 80 0 80 286 3 287 2 -4 123 -4 122 -455 3 c-250 1 -455 0
-455 -3z" />
        <path d="M15910 880 l0 -570 170 0 170 0 0 230 0 230 185 0 185 0 0 -230 0
-230 175 0 175 0 0 570 0 570 -172 -2 -173 -3 -3 -198 -2 -197 -183 2 -182 3
-3 198 -2 197 -170 0 -170 0 0 -570z" />
    </g>
</svg>