<svg id="Layer_1" data-name="Layer 1" xmlns="http://www.w3.org/2000/svg" viewBox="0 0 1508.5 800.2"><defs><style>.cls-1{fill:none;stroke:#fff;stroke-miterlimit:10;stroke-width:4px;}</style></defs><path class="cls-1" d="M1394.1,249.2c.8,5.3.8,5.3-5.2,5.3H94.1c-2.5.3-3.2-.6-3.1-2.5s0-2.8,3.7-2.8H1394.1ZM648.5,170.3c0,2.4,0,2.5-3.2,2.5s-8.6,0-12.8.2c-2.1.1-2.9-.4-2.7-2a9.6,9.6,0,0,0,0-1.7c0-13.7-.1-27.3,0-41,.1-1.9-.6-2.5-3.1-2.4-5.2.1-10.4,0-15.6-.1-2.3-.1-3,.3-3,2.2.1,21.2,0,42.3,0,63.5v2l1.8.2c15.1,0,30.1.1,45.2-.1a43.1,43.1,0,0,0,10.6-2c1.7-.5,3.9-1.7,4.2-2.9s3-2.7,5.6-2.5h4a2.8,2.8,0,0,1,3,1.4c2.8,4.2,7.3,6.4,13.5,6.4h39.5a16.2,16.2,0,0,0,3.1-.2c6.6-1,10.6-4.2,12.4-8.7a13.5,13.5,0,0,0,2.9.9l18.2-.2a3.9,3.9,0,0,1,3.8,1.6c3.3,4.3,8.1,6.4,14.9,6.3,24.6-.2,49.3-.2,73.9-.3h57.8a12.5,12.5,0,0,0,.2-1.5c0-21.3-.1-42.6,0-63.9,0-1.6-.8-1.8-2.5-1.8-6.1.1-12.2.1-18.2,0-2.2,0-2.8.4-2.8,2.1.1,13.8,0,27.5,0,41.2v2.3H882.6a37.4,37.4,0,0,0,.5-5.5c-.4-4.9-1.9-7.8-9.3-8.2l-1.7-.4v-.5l9.6-1c0-6.3-.1-12.4.1-18.5,0-2-.9-2.4-3.2-2.4H812.2c-3.3,0-3.3,0-3.3,2.6v33.2c0,1.3-.1,2.2-2.3,2.1h-6.4c-1.8.1-2.4-.5-2.4-1.9.1-5.6,0-11.3,0-17,0-.6-.1-1.3-.1-1.9H775.4c0,3.4-.1,6.6,0,9.8.1,1.3-.4,1.9-2.2,1.8H753.7c-1.5,0-2.1-.3-2.2-1.6-.6-7.7-6.3-11.9-16.4-11.9H695.9l-3.4.2c-5.8.5-10.8,4.6-11.4,9-.2,1.5.2,3.7-.9,4.4s-3.9.3-6,.3c-5.1.1-5.1,0-5.1-3.9v-9.7H648.6C648.6,157.5,648.6,163.9,648.5,170.3Zm264,18.6H789.4c-6.1,0-8.9-2-9.3-6.8a26,26,0,0,1,0-2.8H754.6c-1.9,0-2.7-.3-2.6-1.9s.1-5.6,0-8.4.7-1.8,2.4-1.8h27.7c0-3.1.1-6.1,0-9.1s.5-2.5,2.9-2.4c5.1.2,4.6-.5,4.6,3.7v18.3h14.9l16.3-.2,73-.4c3.4,0,6.7-.2,10.1-.1s2.6-.6,2.6-2.2c-.1-13.9-.1-27.9-.1-41.9,0-2.6,0-2.6,3.4-2.7h6v58.6Zm-215.7-.4c-5.5,0-9.5-2.7-9.7-7q-.3-8.9,0-17.7c.2-4.2,4-7,9.4-7.1h39.2c5.8.1,9.6,3.2,9.6,7.7V181c0,4.5-3.9,7.5-9.8,7.5H696.8Zm174.1-35.7H837.1c-2.3,0-3.3.4-3,2.3a46.8,46.8,0,0,1,0,5.3h30.2c5.4,0,8.8,2.6,8.8,6.6,0,1.8.7,4.2-.5,5.2s-4.3.5-6.5.5l-47.6.4c-2.3,0-3-.5-3-2.3.1-9.1.1-18.3.1-27.4,0-.6.1-1.3.1-2h58.7v11.2ZM614.4,131.3c2.4,0,4.6-.1,6.9,0a2.4,2.4,0,0,1,1.3,1.1,6.1,6.1,0,0,1,.1,1.9v42.3c0,2.5,0,2.5,3.2,2.5h28.8V156h8.4v9.4c0,3.8,0,3.8,5,3.8h12.2v12H664.1c-.3,1.1-.5,2.1-.8,3-1,2.6-3.6,4.3-7,4.3H614.4Zm537.8,61.9,65.1.2c1.7,0,3.5.5,4.9,0,5.7-1.9,10.5-4.4,11.4-9.8a2,2,0,0,1,1.4-1.1h10.3a6.2,6.2,0,0,0,.3,1c.6,6.7,5.5,10.2,14.2,10.2h41.1c7.9,0,13.4-4.2,13.5-10.2s0-10.2,0-15.3c0-.7.1-1.4.2-2.4h31.9V134.2c0-3.3-.7-2.9,4.1-3.1,2.6-.1,3.1.6,3.1,2.5-.1,13.7,0,27.4-.1,41.2a20.2,20.2,0,0,1-.1,2.3h-38.4c0,1.2.1,2.2,0,3.1s.6,1.8,2.3,1.8h41.2c1.6,0,2.2-.4,2.2-1.7V127.4c0-1.3-.6-1.7-2.3-1.7h-17.2c-2.5-.1-3,.6-3,2.4.1,10.3,0,20.6.1,30.9,0,1.6-.6,2.1-2.6,2h-21.1c-1.8-7.5-6.1-10.3-15.8-10.3h-39.7c-7.2.1-12.4,3.4-13.5,8.9-.3,1.1-.8,1.4-2.1,1.4h-9.1c-1.3,0-1.9-.3-2-1.4-.3-5.2-5.4-9-12.1-9.1l-41.2-.3c-3.2-.1-3.2,0-3.2,2.5.1,5.8.3,11.5.4,17.3.1,1,0,1.7-1.7,1.7l-23.9.4c-1.7,0-2.1-.5-2.1-1.7s.1-5.2,0-7.8c-.3-6.1-6.7-11.1-14.7-11.1h-42.4c-7.4,0-13.3,4.6-13.3,10.3q-.1,10.9,0,21.9c0,6.4,6.2,11.2,14.5,11.2H1133c7.3,0,13-3.4,15.1-8.8l.6-1.2h.5v8.3Zm-19.3-35.4c5.7,0,9.5,3,9.6,7.4v17c-.1,3.9-3.6,7.1-8.6,7.2H1093c-5.2-.1-8.7-3.1-8.9-7.5s-.2-11.1,0-16.6,4.1-7.5,10.3-7.5h38.5Zm126.9,31.1c-5.7,0-9.8-2.8-9.9-7.2s-.1-11.5,0-17.2c.1-4.1,3.6-6.8,8.9-7.2h38.5c7.5,0,11,2.8,11,8.6v15.4c-.1,4.8-3.8,7.7-10,7.7h-38.5Zm-16.2-22.8v10.5c0,1.2-1.1,1.1-2.2,1.1h-15.2c.7,3-.2,5.5-2.7,7.7a13.9,13.9,0,0,1-9.7,3.6c-18-.2-36-.1-54-.1h-3.1V176.5h54.1c2.1,0,2.9-.4,2.7-2.1s-.1-4.2,0-6.3-.4-1.8-2.2-1.8l-24.4-.3h-3.2c0-2.8,0-5.4.1-8,0-.3.8-.8,1.4-.9h3.4c10.1,0,20.1.1,30.1-.1,3.2,0,5.1,1.1,6.1,3.1s1.1,3.9,1.8,6.1ZM285,193.4V150.7H263.2c-3.7.1-3.7-.6-3.7,2.9v17.2c0,2.5,0,2.6-3.4,2.7H235.8a18.3,18.3,0,0,1-.2-2.1c.1-6.3.1-12.6.3-18.9.1-1.5-.6-2-2.5-2h-131c-6.4,0-11.6,4.1-11.6,9,.1,10.8.1,21.6.2,32.4,0,.5.1.9.1,1.5h64.4c0-3.8,0-7.4-.1-11,0-1.3.6-1.8,2.3-1.8s5.5.1,8.2,0,2.6.5,2.6,2.1c-.1,3.4,0,6.8,0,10.6ZM168.8,172h-2.3l-57.7.4c-3.2,0-3.2,0-3.2,2.4v4.4c0,2.7,0,2.7,3.3,2.7h33.5c5.3,0,5.3,0,5.3,4.2v2.6H100.5c-2.1,0-2.8-.4-2.8-2.1.1-8.1,0-16.3,0-24.4a13.5,13.5,0,0,1,.6-3.4c.7-2.5,2.5-3.5,5.9-3.5h64.6Zm70.9,6.6h22.2c2.3,0,3.1-.4,3.1-2.3-.2-6-.1-12.1-.1-18.1V156h12.9v32.9H233.4c1.2-3.2,2.4-6.6,3.7-10.2Zm-62.4-.3c0-7-.1-14-.2-21,0-1.2.7-1.7,2.2-1.6h7.2c1.5-.1,2,.4,2,1.6,0,8.8.1,17.6.2,26.4,0,3-3.4,5.2-7.2,5h-7.1l-.5-.4C178.3,185.6,177.3,181.8,177.3,178.3Zm39.8,3V155.8h11.3v9.3c.1,5.9.2,11.7.2,17.6,0,4.1-2.8,6.1-8.1,6h-6.6l-.2-.5C216.7,186.4,217.2,184,217.1,181.3Zm-10.8-25.5c.4,0,1.1,1,1.1,1.6l.3,21.1a46.4,46.4,0,0,1-.1,5.3c-.3,3.2-3.3,5-7.4,4.9-2.4-.1-4.8,0-7.3-.2,4.3-2.8,3.4-6.5,3.4-10,.1-6.8,0-13.5,0-20.2v-2.6Zm123,36.7,109.5.2c4,0,4,0,4-3.2V157.7c0-10.3-.1-20.5,0-30.7,0-1.8-.6-2.3-2.9-2.2-4.5.1-9,0-13.6,0H419v46.8H400.5v-22H381.4c-2.5-.1-3.1.6-3,2.4.1,5.9,0,11.8.1,17.7,0,1.6-.7,2.1-2.7,2.1l-45.7-.2-2.6-.2V150.7c-7.2,0-14.2.2-21.2-.1a12.1,12.1,0,0,0-9.7,4,12.6,12.6,0,0,0-3.8,8.9c-.1,9.3,0,18.7,0,28a14.1,14.1,0,0,0,.2,1.8c3,0,5.9.1,8.8-.1s2.9.5,2.9,2.3c-.1,10.6-.1,21.3-.1,32v2.4a44.9,44.9,0,0,1,5.2,0c5.9.8,9.8-1.3,13.3-4.6s4.5-5.6,4.5-9,0-6.7,0-10.1V192.5Zm97-16.8c0-14.3.1-28.6,0-42.9,0-2,.7-2.5,3.2-2.5,5.9.1,5.9,0,5.9,4.5v54.1H328.2V178h56.5a21.5,21.5,0,0,0,.2-2.3c0-5.9.1-11.7,0-17.6-.1-1.6.4-2.3,2.8-2.3,5.3.1,5.3,0,5.3,4v18.4h33.3ZM319.7,158.9V215a4.8,4.8,0,0,1-2.3,4.5,59.1,59.1,0,0,0-5.3,4.3c-.1-.9-.3-1.3-.3-1.8.1-10.5.1-21,.2-31.5,0-1.1-.3-1.7-2-1.6h-7.2c-1.2,0-1.8-.3-1.8-1.3,0-8.5,0-16.9.1-25.4a7.7,7.7,0,0,1,1.6-3.9c.8-1.4,2.4-2.1,4.6-2.1,4,.1,8,0,12.2,0A22.8,22.8,0,0,1,319.7,158.9Zm754.9,12.4-19,.4c-2,0-2.7-.6-2.7-2.1,0-5.5-.2-11.1-.2-16.6,0-1.5-.6-2-2.5-1.9l-19.3.2-28.1.2c-6.3.1-11.5,4.1-11.5,9-.1,18.9.1,37.8-.2,56.8,0,3.6,1.8,5.9,5.5,7.3a26.5,26.5,0,0,0,8.9,1.7h55c1.9,0,2.3-.6,2.3-2-.1-5.2,0-10.4.1-15.6,0-2.5,0-2.5-3.3-2.5h-39c-2.4,0-3.1-.6-3-2.4a74.8,74.8,0,0,0,0-8.2c-.1-1.8.6-2.5,3-2.5l54-.4h2.9V171.3Zm-32.2-6.2c0,1.5-.9,1.7-2.4,1.6l-22-.3h-6.2v9.2h58.4v5.3c0,2.2-.1,4.4,0,6.6s-.6,2.1-2.7,2.1h-55.2c0,.7-.2,1.3-.2,1.9,0,6.2.1,12.4,0,18.5-.1,1.8.8,2.2,2.8,2.1h37.3c3.2,0,3.2,0,3.2,2.6v7h-48.7c-3.8,0-6-1.8-8.2-3.7a2.1,2.1,0,0,1-.4-1.1v-.8c-.1-17.4-.2-34.8-.2-52.2,0-3.5,3.8-6.8,8.4-6.9h35.3l.7.3C1042.3,159.9,1042.2,162.5,1042.4,165.1ZM510.9,192.2h14.6l55.7.3c1.5,0,2-.4,2-1.6s.1-4.3,0-6.5.5-1.7,2.1-1.7h10.1c1.9,0,2.7-.4,2.7-2-.1-7.2-.1-14.3,0-21.4,0-1.6-.7-2-2.7-2H524.1c-8.7,0-15.8,4.7-16.1,11s0,15.6,0,23.8Zm62-8.4v5.4l-2.8.2H518.3c-2.4,0-3.3-.5-3.2-2.5.1-6.1-.2-12.2,0-18.2.2-4.4,2.9-6,8.5-6.1l59.2-.2h6.9c1.7-.1,2.4.4,2.4,1.7s.1,4.6,0,6.9c0,.5-.9,1.1-1.6,1.3a5.4,5.4,0,0,1-2.2.1H531.1c-2.4,0-3.2.4-3.1,2.3s.1,5.8.1,9.1ZM830.5,326c12.1-8.2,11.9-22.3-.3-30.3s-32.1-8.2-44.5.1-12.4,20.1-2.2,28.7a32.4,32.4,0,0,0,12.7,6.4,39.2,39.2,0,0,0,14.9,1.3c2.8-.3,4.9.1,6.5,2.4s4.8,4.1,8,5.4c6.3,2.7,13-1.5,14.3-5.4s.5-5.2-2-7.2a49.8,49.8,0,0,1-2.5,4.6,2.2,2.2,0,0,1-3.2.7c-2-1.1-3.9-2.4-6.2-3.8C828,327.6,829.3,326.9,830.5,326Zm-35.2-5.4a10.7,10.7,0,0,1-3.1-7.4,16.1,16.1,0,0,1,5.5-13.9c5.5-5,13.4-5.3,19.6-.8s8.8,17.4,2.3,23.6C813.7,317.7,803.2,317.1,795.3,320.6Zm15.6,6.4c-3.5,2.6-12.7-.7-14.4-5C801.8,321.4,809.6,323.8,810.9,327ZM703.8,304.4a16.7,16.7,0,0,1-1.8-2.8c-1.3-3.2-2.6-6.5-3.8-9.8-.6-1.6-1.6-2.3-3.8-2.3-7.2,0-14.3-.2-21.5-.3-1,0-2,.2-3,.3,4.8,1.1,4.8,1.1,4.8,5.4v32.6c0,2.9-.2,3.1-3.7,3.8l-1.4.4v.3h17.8c-2.9-.6-3.4-2.2-3.3-4.2.1-8.4.1-16.7.2-25,0-1,.2-2.1.3-3.1l.8-.2,15.3,18.2,15.5-18.1h.7a19.4,19.4,0,0,1,.2,2.4v25.1c0,3.8,0,3.8-4.7,4.4-.1,0-.2.1-.4.4h26.2a4.4,4.4,0,0,0-1.9-.7c-3.6-.4-3.6-.5-3.6-3.5V293.1c0-2.4.6-2.9,3.6-3l1.6-.3a1.8,1.8,0,0,0-1.1-.5c-7.8,0-15.6-.2-23.4,0-1.1,0-2.5,1.1-3.3,2s-.9,1.9-1.3,2.8l-4.3,10.2Zm-537.9-14h2c3.3.1,3.3.1,3.3,2.8v27.1c0,2.3.2,4.7.2,7s-.7,2.8-2.9,3.1a10.8,10.8,0,0,0-3,1.1l.2.6H193c.4,0,1.1-.4,1-.5a1.4,1.4,0,0,0-.7-1,4.1,4.1,0,0,0-1.6-.3c-3.1-.2-3.7-.8-3.7-3.3V314.5c-.1-5.7.1-5.8,7.1-5.7,4.2.1,5.4,1,5.4,4.5v11.6a5.2,5.2,0,0,0,4,5.2,39.9,39.9,0,0,0,25.1,0c.7-.2,1.1-1,1.6-1.5a49.9,49.9,0,0,0-5,1.5c-5.4,1.5-9.4-.8-9.4-5.4,0-3-.1-6.1.1-9.1s-1.6-6.5-6.2-7.8l-1.2-.7,2.5-.9a38.6,38.6,0,0,0,4.8-1.6c3.3-1.5,4.7-3.8,4.5-6.8s-2.2-5.1-5.7-5.9-8.8-2.1-13.3-2.2c-11.3-.3-22.7-.1-34-.1l-2.5.2Zm22.1,1.8c-.1-1.2.3-1.7,1.9-1.7h9c3.7.1,5.4,1.5,5.4,4.5s.1,5.6,0,8.4-1.2,3.4-3.8,3.6-6.7.4-10.1.4a2.2,2.2,0,0,1-2.4-2.4v-6.6C188,296.4,188.1,294.3,188,292.2Zm390.1,2.2v31.9c0,4.2,0,4.2-4.7,5.6a.3.3,0,0,1-.1.2h23.4c-2.8-.1-3.1-1.6-3.1-3.4.1-5.6.1-11.2.1-16.8,0-2.5.2-2.7,3.3-2.7h8.3c3.6,0,4,.3,4,3.2.1,5.3.1,10.5.1,15.7,0,1.7-.4,3.4-3.6,4.1h23.6c-3.8-.6-4.4-1.2-4.4-4.3V294.5c0-3.1.4-3.5,4.3-4l.6-.2H606.6c1.7.1,2.7.8,2.7,2.2-.1,2.9-.1,5.7-.2,8.6-.1,1.4-1.2,2.2-2.9,2.2h-9.7c-1.7,0-2.7-.9-2.8-2.3s.1-4.1-.1-6.1.2-3.5,3.2-4.6H574.1C577.9,290.9,578.1,291.1,578.1,294.4ZM284.6,324.2c9.5-7,9.9-18.5,1-26-12.1-10.1-34.8-11.5-48.6-3.1s-14.1,23.3.5,31.6c6.4,3.7,13.7,5.1,21.4,5.1C268.6,331.8,277.4,329.6,284.6,324.2Zm-36.5-27.6c.9-3.5,3.7-5.6,8.2-5.8a62.1,62.1,0,0,1,7.5.2c3.5.5,5.8,2.2,6.7,5a45.2,45.2,0,0,1,.1,29.3c-1.3,3.6-4.1,5.3-8.8,5.5h-4.9c-4.7-.2-7.8-1.9-8.8-5.5s-2.1-9.7-3.1-14.7C246,305.9,246.9,301.2,248.1,296.6Zm-101-5.8a5.7,5.7,0,0,1-5.5.7,48.6,48.6,0,0,0-18.6-1.9c-8.4.6-16.4,2.4-23,7s-9,8.3-9.2,14.1,2.8,10.5,8.1,14c10.9,7.2,23.5,9.1,37.1,7.2,6.1-.9,11.5-3.3,16.9-5.7,1.3-.6,1.8-1.2,1.8-2.4,0-3.7.1-7.5.1-11.2,0-1.6,1.1-2.1,2.8-2.2l2.8-.2v-.3H129.1a8.9,8.9,0,0,0,3.6.4c2.2-.1,3.1.8,3.1,2.5-.1,4.5-.1,8.9-.1,13.4a4.2,4.2,0,0,1-2.8,4.1c-7.6,3.5-16.6.5-19.2-6.2a35.9,35.9,0,0,1-1.5-17.5,39.2,39.2,0,0,1,2.6-10.6c1.7-3.9,7.1-6.2,12-5.3a37.2,37.2,0,0,1,8.8,2.6,19.5,19.5,0,0,1,10.6,10.5c.5,1.3,1.1,2.5,3.3,1.7V289.9A20.7,20.7,0,0,0,147.1,290.8Zm247.7,40.8a12.9,12.9,0,0,0-2.6-.8c-2-.4-4-.5-6-.8s-4.3-1.9-4.4-4.4c0-1-.1-1.9-.1-2.9v-9.3c5.3,0,10.1.2,14.8,0s11.5-1.8,15.8-5.3,4.9-7,3.3-11.2-5.2-5.9-9.9-6.4a83,83,0,0,0-11.1-.9c-12.6-.1-25.3,0-38,0h-1.9v.6a18.6,18.6,0,0,0,2.5,1l4.4.7c3.7.5,5,1.8,4.9,4.8-.1,9.8-.2,19.6-.4,29.3,0,2.4-1,3.4-3.8,3.8l-5.3.8a13.6,13.6,0,0,0-2.1,1l.3.4h39.5Zm-13.4-36.1c0-2,.8-3,3.3-2.9a43,43,0,0,1,8.8.8c5,1.1,7.3,4.2,7,8.8s-3.4,7-8.7,7.8a50.6,50.6,0,0,1-6.8.5c-1.8.1-3-.5-3.2-2.1s-.3-5-.5-7.6h.1Zm972.4,7.6a37.1,37.1,0,0,0,2.7,2.9c9.3,8.2,18.7,16.3,28.1,24.4a9.6,9.6,0,0,0,3.3,1.8c3.3,1,4.4.3,4.4-2.5,0-11.9,0-23.8.1-35.6,0-2.8.7-3.3,4.1-3.6l1.5-.2v-.6h-16.2a1.4,1.4,0,0,0,1.1.8c3.7.3,4.5,1,4.5,4.1s-.1,4.7-.1,7,0,6.6-.1,9.9c0,.4-.5.9-.7,1.3a3.9,3.9,0,0,1-1.1-.6c-8.1-7-16.2-14.1-24.4-21a8.1,8.1,0,0,0-4.5-1.6c-4.2-.2-8.5-.1-12.7,0a9.3,9.3,0,0,0-2.3.4,3.6,3.6,0,0,0,1.9.5c3.8.1,3.8.1,3.8,3.1v32.8c0,4.4,0,4.4-5.2,5.3a.8.8,0,0,1-.1.3h16a7,7,0,0,0-2.6-.8c-2.2-.1-3-1.1-3-2.8V305.2a6,6,0,0,1,.8-2.1ZM957,125.9H936.7c-3.2,0-3.2,0-3.2,2.5V179c0,4.2.1,8.5,0,12.7,0,1.5.5,2.1,2.5,2h21Zm-14.9,63V130.7h7.3v58.2ZM1117,303l3.5,3.2,26.9,23.3a15.3,15.3,0,0,0,5.2,2.8c2.5.7,3.4-.1,3.4-2.2,0-11.4.1-22.8,0-34.1-.1-2.8.7-4.9,4.3-5.8.1,0,.1-.2.2-.3H1146a4.7,4.7,0,0,0,1.5.6c2.6,0,3.4,1.3,3.4,3.1v16.6a25.5,25.5,0,0,1-.8,2.8l-1.2-.8c-8-7-16-14.1-24.1-21a9.2,9.2,0,0,0-4.8-1.6c-4.2-.2-8.5-.1-12.7-.1l-1.8.2a3,3,0,0,0,1.5.5c4.3.6,3.7,0,3.7,3.4v33.5a4.7,4.7,0,0,1-.9,3.3c-.8.7-2.5.9-4.2,1.6h15.2c-5.1-1.5-5.1-1.5-5.1-6,0-6.3,0-12.6.1-18.9,0-1.3.1-2.5.2-3.7ZM417.2,332.2l3.1.2c11,.1,22,.1,33.1,0,3.2,0,6.4.1,9.6-.2a4.5,4.5,0,0,0,3-1.7,81,81,0,0,0,4.7-9.3c.4-.8.1-1.7.1-2.6H470l-4.2,4c-5.9,5.6-13.5,7.9-22.4,7.8-2.7-.1-3.5-.8-3.6-2.9-.1-5-.1-9.9-.3-14.9,0-1.8,1.2-2.3,3.2-2.2,3.8.2,6.7,2,8,5.1l1.3,3.1.6-.2V300.5a24.9,24.9,0,0,0-2.3,3.7c-1.8,3.5-5.2,4.8-9.7,3.9-.6-.2-1.5-.9-1.5-1.3-.1-4.3,0-8.7,0-13,0-1.4.9-2,2.6-2.2,9.6-.6,17.7,1.7,24,7.7.6.5,1.5.9,2.2,1.4a3.8,3.8,0,0,0,.3-2.7c-.9-2.1-1.8-4.2-2.8-6.3s-2-2.2-4.1-2.2H419.9l-2.3.2v.5l2.9.3c1.4.2,2.3.7,2.3,2v36.6c0,1.2-.7,1.9-2.2,2l-3.4.5Zm870.7-37.9c-.1,11.3,0,22.7-.1,34,0,2.6-.7,3.1-4.1,3.2a4.5,4.5,0,0,0-1.1.3,3.2,3.2,0,0,0,1.7.6h43.5a3.5,3.5,0,0,0,3.4-1.9c1.5-3.1,3.1-6.1,4.5-9.2a7.6,7.6,0,0,0,0-2.6h-.7c-1.1,1.2-2.3,2.3-3.5,3.5-6.1,5.9-13.8,8.6-23.3,8.4-1.9-.1-3.3-.5-3.4-2.4-.1-5-.3-10-.4-15-.1-2.1,1-2.8,3.5-2.6s6.5,2.1,7.7,5.1l1.4,2.9c1.6-1.8,1.5-16.3-.1-17.7l-1,2.4c-1.3,3.8-4.3,5.5-9.1,5.2-1.5-.1-2.4-.7-2.5-1.9-.1-4.2-.2-8.4-.2-12.6,0-1.2,1-2.1,2.7-2.1,9.2-.3,17.5,1.4,23.7,7.4a13.4,13.4,0,0,0,2.3,1.6l.7-.3c-.1-.6.1-1.3-.2-1.8-.9-2.2-1.9-4.3-2.8-6.5s-2.1-2.6-4.5-2.6h-36.4l-5.9.2C1286.5,290.6,1287.9,291.9,1287.9,294.3ZM932.6,304.9c-1.6,2.6-4.5,3.7-8,3.2-1.6-.2-2.3-.7-2.3-2.1,0-3.7-.2-7.4-.4-11s.5-3.3,3.6-3.5c8.8-.5,16.4,1.7,22.5,7a24,24,0,0,0,3.1,2.1l.8-.5c-1.3-2.9-2.4-5.8-3.7-8.7a3.5,3.5,0,0,0-3.5-1.9H902.4l-2.1.2a2.5,2.5,0,0,0,1.7.7c3.6.2,3.6.2,3.6,3.1V327c0,4,0,4-4.5,4.9h44.8c1.2,0,2.5.2,3.1-1.2,1.5-3.2,3.2-6.4,4.7-9.7a10.1,10.1,0,0,0,0-2.5l-3.5,2.5c-1.7,1.4-3.2,3-5,4.3-5.3,3.8-11.8,4.9-18.6,5-2,0-3.7-.6-3.8-2.5-.2-5.1-.3-10.3-.5-15.4,0-1.4.9-2,2.7-2.1,4-.1,6.9,1.6,8.4,4.8l1.5,3.5c.7-.3.8-.5.9-.8.1-5.3.2-10.6.2-16,0-.5-.5-1-1-1.8C934,302,933.5,303.5,932.6,304.9ZM456.5,124.3c-2.4,0-3,.5-3,2.3q.2,31.7.1,63.3c0,.7.1,1.4.1,2.1h23.2V124.3C470,124.3,463.3,124.4,456.5,124.3Zm14,62.9c0,1.6-.6,2.1-2.7,2.1-6.5-.1-6.5,0-6.5-4.9V133.1c0-1.8.6-2.4,3-2.4,6.1.1,6.1,0,6.1,4.7v24.8C470.4,169.2,470.4,178.2,470.5,187.2ZM1083.9,290l2.3.3c1.9.2,2.9,1.1,2.9,2.7-.1,10,0,20.1-.1,30.1,0,3.4-2.3,5.9-6.4,6.4a40.2,40.2,0,0,1-9.8.3c-4.5-.5-6.3-2.4-6.8-6a17.9,17.9,0,0,1-.2-2.3V294.4c.1-3.5.1-3.6,4.4-4.4a1,1,0,0,1,.1-.4h-25.7c4.7.8,4.7.8,4.7,4.8V322c-.1,3.8,2.1,6.4,6.4,7.8a52.2,52.2,0,0,0,27.7,1.6c9.5-2,11.1-4.2,10.8-12.1s-.1-15.7-.1-23.6c0-2.8,1-5,4.7-5.8,0,0,0-.2.1-.2h-15Zm-237,4.7c0,9.2.1,18.4,0,27.6,0,3.5,1.9,5.9,5.9,7.3a52.1,52.1,0,0,0,32.2.7c4.8-1.4,6.7-3.7,6.7-7.8,0-8.6,0-17.1-.1-25.7,0-3.2.2-6.1,4.9-7.1h-15a4.6,4.6,0,0,0,2.2.6c2,.2,2.9,1.2,2.9,2.8,0,10.1,0,20.2-.1,30.3,0,3.1-2,5.1-5.8,5.8a50.3,50.3,0,0,1-7.7.8c-6.9,0-9.8-2.5-9.8-8V294.2c0-3.6.2-3.7,4.5-4.1l.5-.4h-26C847,290.5,847,290.5,846.9,294.7Zm-546.1-.3c0,6.1.2,12.2.2,18.3,0,3.4-.2,6.8-.2,10.1s1.7,5.3,5.1,6.5a51.4,51.4,0,0,0,32.2,1.2c5.9-1.6,7.6-3.6,7.6-8.6-.1-9-.2-17.9-.2-26.9,0-3.6,1.1-4.6,5-4.6q.2,0,.3-.3H335a14.7,14.7,0,0,0,2.8.8c1.9.2,2.7,1.2,2.7,2.6v29.6c-.1,3.3-2.5,5.8-6.5,6.4a46.5,46.5,0,0,1-7.5.5c-6.5-.1-9.4-2.6-9.4-7.9V294.7c0-3.1.3-3.3,3.8-4.1l1-.2a99.7,99.7,0,0,0-25.6-.1C300.7,290.8,300.8,290.8,300.8,294.4Zm935.9-3.3a8.9,8.9,0,0,1-3.2.5c-3.6-.5-7.1-1.5-10.8-1.9a44.3,44.3,0,0,0-18.1,1.8c-3.1,1-5.8,2.6-6.8,5.4s.7,6.7,3.9,9,8.3,5,12.3,7.6,9,5.9,13.2,9,2.7,6.9-1.8,8.2c-8.1,2.4-20.3-.2-22.6-9.8-.6-2.3-.5-4.7-.8-7-.1-.5-.9-1-1.3-1.5s-1,1-1.1,1.5v17.9l2.4-.4a17.4,17.4,0,0,1,3.9-.5c7,.5,14.1,1.3,21.1,1.5a24.6,24.6,0,0,0,14.9-4.6c3.8-2.7,4.1-6.5.8-9.6a32.2,32.2,0,0,0-4.1-3.2c-5.6-3.5-11.3-6.9-16.8-10.5-2.9-1.8-5.8-3.7-8.5-5.7s-2.6-3-1.8-4.9,2.5-2.7,4.9-3.1c10.4-1.5,20.4,5.1,20.6,13.8,0,1.4.1,2.6,2.5,1.7V290.2A12.8,12.8,0,0,1,1236.7,291.1Zm-677,.2a6.8,6.8,0,0,1-4.9.4c-12.9-4.5-24.9-3-35.9,3.9-7.7,4.8-11.1,11.2-9.3,19.1,2.5,10.8,17,17,26.9,17.8a48.8,48.8,0,0,0,18.7-2.2c1.5-.5,2.8-.8,4.1.3a8.7,8.7,0,0,0,2.4,1,5.6,5.6,0,0,0,.8-2c.1-4.8.1-9.6,0-14.3a10.1,10.1,0,0,0-.3-1.7h-.8a29,29,0,0,0-1.9,2.9A26.6,26.6,0,0,1,546.2,330c-7,3.4-13.8,1.1-15.9-5.3-2.9-8.6-2.7-17.3-.5-26s10.6-10.7,18.7-5.7a30.8,30.8,0,0,1,11.1,11.9c.3.6,1.3,1,2,1.5s.9-1.3.9-2c.1-2.7.1-5.4.1-8.2v-6.3ZM985,306.8a21.5,21.5,0,0,1,3.5-10.2,13.2,13.2,0,0,1,10.2-5.8c3-.3,3.2-.1,3.2,2.3,0,11.6.1,23.1,0,34.7,0,3.6,1,3.2-4,3.7l-.4.2h24.7c-3.3-.3-4.1-.9-4.2-3.6s.1-2.5.1-3.8V293.2c0-.8.1-1.7.2-2.7,5.1.3,9.3,1.7,12.6,4.6s4.5,7.6,4.5,11.9c.1,1.3.6,1.7,2.2,1.2V289.7H982.7v18.5C984.6,308.8,984.9,307.9,985,306.8Zm407.2-124.4V126.1h-20.6v56.3Zm-6.7-50.9v45.9h-7V131.5ZM637.3,290.4c4.6.3,4.6.3,4.6,4v34.3c0,.9-.1,1.7-.1,2.6l-4.5.7v.2H663c-5.2-.8-5.2-.9-5.2-5.4v-1.9c0-5.5.1-11,.1-16.5s-.1-9.9,0-14.9c0-2.7.2-2.7,3.6-3.1.1,0,.2-.1.5-.5H637.3ZM1191,331.5c-4.7-.2-4.8-.3-4.8-4.1V295.2c0-4.5,0-4.5,5.3-5.1a.3.3,0,0,0,.1-.2h-26.2a1.6,1.6,0,0,0,.9.3c4.2.1,4.3.2,4.3,3.4v32.6c0,5.4-.9,4.7-5.1,5.3l-.2.6H1191Zm58.6-41.4a9.2,9.2,0,0,0,1.6.1c2.7,0,3.4,1,3.3,3.1-.2,4.7-.1,9.4,0,14.1v21.3c0,2.2-.5,2.6-3.3,2.8h-2.1v.4h26.7a2.3,2.3,0,0,0-1.5-.5c-4.1-.5-4.2-.5-4.3-3.9V294.4c.1-4.3-1.1-3.6,4.9-4.3l.4-.3h-25.8ZM745.7,290h.9c4.4.3,4.4.3,4.6,3.8v31.8c0,4.5-.1,4.5-5.3,6h25.7c-5.1-.6-5.1-.6-5.1-5V295.1c0-4.3.1-4.3,5.3-5.1a1,1,0,0,0,.1-.4H745.8Zm-179-139.8c0,1.5,1.2,1.3,2.3,1.3h26.6c2.1,0,2.4-.6,2.4-2-.1-6.8,0-13.6,0-20.4a13.7,13.7,0,0,0-.2-1.9H566.7Zm6.6-5.1V131.5H590c.1.1.3.2.3.3.6,4.4,1.3,4-4.5,4-2.3,0-4.6-.1-6.9,0-3.9.1-1.7,2.4-2,3.7s-1,2.8,2,2.7H586c2.3-.1,1.8,1.2,1.8,2.2s.6,2.3-1.8,2.2H573.5A9.3,9.3,0,0,1,573.3,145.1Zm64.3,65.5c-1.6,0-1.6.7-1.6,1.6,0,3.4.1,6.9,0,10.3-.1,1.4.7,1.7,2.3,1.7h32.6V210.6Zm13.3,7c.1,2.5,0,2.5-3.3,2.5h-1c-5.8-.1-5,.8-5.2-4,0-1.7.7-2.2,2.7-2.1h2.2C651.8,214.1,650.9,213.8,650.9,217.6Zm5.5-.9c0-2.7.1-2.7,3.4-2.7h.5c6.4.1,5.3-.7,5.5,4.4,0,1.3-.5,1.9-2.3,1.7h-2.7C656.3,220,656.5,220.9,656.4,216.7Zm-125.8-6.1c-1.6,0-1.6.7-1.6,1.6,0,3.4,0,6.9-.1,10.3,0,1.4.8,1.7,2.4,1.7h32.6V210.6Zm13.3,7c0,2.5,0,2.5-3.4,2.5h-1c-5.7-.1-4.9.8-5.1-4-.1-1.7.7-2.2,2.7-2.1h2.2C544.7,214.1,543.9,213.8,543.9,217.6Zm5.5-.9c0-2.7,0-2.7,3.3-2.7h.5c6.4.1,5.4-.7,5.5,4.4.1,1.3-.5,1.9-2.2,1.7h-2.7C549.2,220,549.4,220.9,549.4,216.7ZM99.1,210.6c-1.6,0-1.6.7-1.6,1.6v10.3c-.1,1.4.7,1.7,2.3,1.7h32.6V210.6Zm13.3,7c.1,2.5,0,2.5-3.3,2.5h-1c-5.8-.1-5,.8-5.2-4,0-1.7.7-2.2,2.7-2.1h2.2C113.3,214.1,112.4,213.8,112.4,217.6Zm5.5-.9c0-2.7,0-2.7,3.4-2.7h.4c6.5.1,5.4-.7,5.6,4.4,0,1.3-.5,1.9-2.3,1.7h-2.7C117.7,220,117.9,220.9,117.9,216.7Zm254.6-92c-1.6,0-1.6.7-1.6,1.6,0,3.4.1,6.9,0,10.3-.1,1.4.7,1.7,2.3,1.6h32.6V124.7Zm13.4,7c0,2.5,0,2.5-3.4,2.5h-1c-5.8-.1-5,.8-5.2-4.1,0-1.6.8-2.2,2.7-2h2.2C386.7,128.1,385.8,127.9,385.9,131.7Zm5.5-1c-.1-2.6,0-2.6,3.3-2.6h.5c6.4.1,5.3-.7,5.5,4.4,0,1.3-.5,1.9-2.3,1.7h-2.7C391.2,134.1,391.4,135,391.4,130.7Zm373.5,79.9c-1.6,0-1.6.7-1.6,1.6,0,3.4.1,6.9,0,10.3-.1,1.4.7,1.7,2.4,1.7h32.5V210.6Zm13.4,7c0,2.5,0,2.5-3.4,2.5h-1c-5.8-.1-5,.8-5.1-4-.1-1.7.7-2.2,2.6-2.1h2.3C779.1,214.1,778.2,213.8,778.3,217.6Zm5.5-.9c0-2.7,0-2.7,3.3-2.7h.5c6.4.1,5.3-.7,5.5,4.4,0,1.3-.5,1.9-2.3,1.7h-2.7C783.6,220,783.8,220.9,783.8,216.7ZM283.1,141.6c0-4.2,0-8.4.1-12.5,0-1.5-.7-1.9-2.4-1.9H268.5c-2.3,0-5.6-.6-6.6.4s-.6,3.4-.7,5.2v9.5H283A2.8,2.8,0,0,0,283.1,141.6Zm-14.2-3.2c-.5,0-1-.6-1.4-1s0-.4,0-.5c-.4-6.2.3-6.6,9.4-5.7v7.3Zm922.5,85.1c0,.4,1,1.1,1.5,1.1h18.7c.6,0,1.6-.6,1.6-.9.1-4.7.1-9.4.1-14.2h-22C1191.3,214.3,1191.3,218.9,1191.4,223.5Zm16-6.5c0,4.2.6,3.7-4.7,3.7s-5.1.4-5.1-3.9-.8-3.5,4.9-3.5S1207.4,212.8,1207.4,217ZM732.5,176.1c2.8,0,3.6-.6,3.6-2.6s-1-2.9-3.6-2.9H699c-2.6,0-3.6.9-3.5,3s.9,2.5,3.5,2.5h33.5Zm396.1,0c2.7,0,3.4-.5,3.5-2.5s-.8-3-3.5-3h-33.5c-2.6,0-3.5.8-3.5,3s.7,2.5,3.5,2.5h33.5Zm165.5.1c2.3,0,3.3-.8,3.3-2.5s-.8-3.1-3.2-3.1h-34c-2.5,0-3.3.9-3.3,3.1s1.2,2.5,3.4,2.5h33.8Zm-985.5,1.3c-.1,1,.4,1.6,1.6,1.4a2.7,2.7,0,0,0,1.7-1.4,18.8,18.8,0,0,0,.1-4.1c0-2.3-.1-2.4-3.4-1.9Zm709.7,265.7,7.4,2.3,6.6-2.3M966.4,393,782.1,577.2,966.4,761.5l184.2-184.3Zm-47,174.1a53.1,53.1,0,1,0,53,53.1A53.1,53.1,0,0,0,919.4,567.1Zm95.7,0a53.1,53.1,0,1,0,53,53.1A53.1,53.1,0,0,0,1015.1,567.1Zm0-85.1a53.1,53.1,0,1,0,53,53.1A53.1,53.1,0,0,0,1015.1,482ZM920,483.9a53.1,53.1,0,1,0,53,53A53,53,0,0,0,920,483.9ZM685.3,747.6l14.2,4.7,12.3-5m-56.4-2.5,14.2,4.8,12.3-5m-24.5,15.9,14.2,4.7,12.3-5m-54.5-12.4,14.2,4.7,12.3-4.9m-54.5-2.8,14.3,4.8,12.3-5m1.9,18.6,14.2,4.7,12.3-4.9m-54.5-2.8,14.2,4.8,12.3-5m56.9.7,14.2,4.8,12.3-5M597.3,745.3l-10.1,3.8m10.6,12.3-12.5,4.5M582,435.3l14.7,4.2,13.1-4.3m65-6,9.6,2.8,8.4-2.8m3.4,262.9.6,65.3m-17.4-75.5v83.6m-12.5-90.2v82.6M652.3,618.2V761.4M638.2,440.9V758.4M624.1,428.1V749.2M609.5,405.7V756.8m-13.2-2V399.4m-13.8,7.5V759.8m-13.7-21.3v-265m-10.9,248V690.9m53.2,4.5-14.5,5.4-14.4-5.4-12.3,5.4L554.7,696v26.5m3.2-9.1M557,712l14.9,5.6,13.3-6.3,14.1,5.5,13.8-5,15.2,5.3,11.9-5.1,13.2,4.4,12.5-4.4m-80.7,15.6,14.1,5.5,13.8-5,15.2,5.3,11.9-5.1,13.2,4.4,12.5-4.4m-109.3-2.9,14.8,5.6,13.4-6.3M669,712.2l14.3,4.8,12.3-5M669,728.3l14.3,4.8,12.3-5M554.8,603.5l13.8,4.8,13.9-5.2,14.7,5.4,12.3-5,15.7,4.5,13-4.3M554.8,589l13.8,4.8,13.9-5.2,14.7,5.4,12.3-5,15.7,4.5,13-4.3m-83.4-14.7,13.8,4.8,13.9-5.2,14.7,5.4,12.3-5,15.7,4.5,13-4.3m-83.9-17.2,13.8,4.8,13.9-5.2,14.7,5.4,12.3-5,15.7,4.6,13-4.3m-83.1-17.7,13.7,4.7,14-5.2m.5,3.2,14.7,5.4,12.3-4.9,15.6,4.5,13-4.3m-83.6-15.4,13.8,4.7,13.9-5.2,14.7,5.5,12.3-5,15.7,4.5,13-4.3m-83.9-16.6,13.8,4.8,13.9-5.2,14.7,5.4,12.3-5,15.7,4.5,13-4.3m-83.4-14,13.8,4.7,13.9-5.2,14.7,5.5,12.3-5,15.7,4.5,13-4.3m-83.4-16,13.8,4.8,13.9-5.2,14.7,5.4,12.3-5,15.7,4.5,13-4.3m-83.4-14.9,13.8,4.7,13.9-5.2,14.7,5.5,12.3-5,1,.3m-27.5-18.2,13.8,4.8,13.9-5.3,14.7,5.5,12.3-5,1,.3M610,467.7l14.7,4.2,13-4.3m-144,26.1c1.9,2.1,3.3,3.7,4.8,5.2,6.3,6.2,14,8.4,23.1,6.3a133.3,133.3,0,0,0,13.8-3.6c4.5-1.5,8.7-3.4,13.6-5.4v3.3c-.7,27-1.4,54.1-1.7,81.2-.1,5.4,2,10.9,2.6,16.3.9,9.1,1.8,18.3,2.2,27.4.2,6.4-2.4,8.4-9.5,8.4-15.7.1-31.4,0-47,0h-4.3v8.6c3.4,0,6.7-.1,10,0l56.4.8a10.9,10.9,0,0,1,9.7,6.1c4,7.4,3.2,14.4-2.4,20.9-3,3.5-6.3,5.2-11.6,5.2-28.4-.3-56.8,0-85.2-.2-10.4-.1-20.4-1.9-29.3-7.2s-12.5-13-9.6-21.8c1.8-5.5,4.5-10.9,6-16.6a72.2,72.2,0,0,0,2.4-17.3c-.1-22.1,2.6-44,5.1-65.9a40.1,40.1,0,0,1,15.7-27.6C469.6,509.3,481.7,501.8,493.7,493.7Zm-6,135.3c0-14.9.1-29.7-.1-44.5a9.5,9.5,0,0,0-5.5-8.2c-2.8-1.4-5.1-.3-5.6,2.5a15.1,15.1,0,0,0-.2,3v39.3C476.3,628.2,479.4,630.4,487.7,629Zm11.4-128.5c5.8,5.3,12.7,7.4,20.8,5.5,11.2-2.6,22.2-5.5,31.4-12.7,7.4-6,13.8-12.5,16.6-21.1,5.4-16.4,3.5-32.5-4.3-47.9a21.8,21.8,0,0,0-7.7-7.7c-14.9-9.5-31.3-9.7-47.7-4.5-10.9,3.4-17.2,11.6-21.4,20.9s-4.8,18.8-5.3,27.1C481.4,478.1,486.1,488.5,499.1,500.5Zm56,176.8c-25.4,0-50.8-.1-76.2.1a5.9,5.9,0,0,0-3.9,2c-9,11.9-17.9,23.9-26.8,35.8-2.6,3.5-5.2,7.1-7.6,10.7-3.8,5.9-3,11.6,2.4,16.4,7.7,6.9,15.4,13.8,23.2,20.5a9.4,9.4,0,0,0,5.6,2.1c11.8.3,23.7.3,35.5.3,17.6,0,35.1,0,52.7-.2,2.6,0,6.1-.4,7.8-1.9,7.8-7.2,8.3-10.5-.5-16.9-1.9-1.4-3.8-2.8-5.8-4.1l-28.8-19.9c-6-4.2-12.1-8.6-17.8-13.2a11.6,11.6,0,0,1-3.2-6.3c-.2-1.1,1.7-2.9,3.1-3.8s2.6.6,3.5,1.4L535,715.2c.6.6,1.4,1.1,2.5,2l20.1-39.6Z"/></svg>